<?xml version="1.0" standalone="no"?>
<!DOCTYPE svg PUBLIC "-//W3C//DTD SVG 20010904//EN"
 "http://www.w3.org/TR/2001/REC-SVG-20010904/DTD/svg10.dtd">
<svg version="1.0" xmlns="http://www.w3.org/2000/svg"
 width="640.000000pt" height="640.000000pt" viewBox="0 0 640.000000 640.000000"
 preserveAspectRatio="xMidYMid meet">

<g transform="translate(0.000000,640.000000) scale(0.100000,-0.100000)"
fill="#000000" stroke="none">
<path d="M4047 3412 c-39 -43 -29 -137 18 -162 28 -15 86 -8 121 15 43 28 22
129 -32 154 -38 17 -89 14 -107 -7z"/>
<path d="M3873 3370 c-65 -66 -64 -148 2 -170 73 -24 115 28 101 125 -12 78
-53 96 -103 45z"/>
<path d="M4252 3260 c-35 -25 -42 -36 -42 -64 0 -39 20 -60 74 -75 105 -28
156 55 82 133 -41 44 -61 45 -114 6z"/>
<path d="M3714 3144 c-4 -14 -4 -48 -2 -75 6 -61 34 -95 70 -86 27 7 88 61 88
78 0 24 -35 68 -70 88 -51 29 -78 27 -86 -5z"/>
<path d="M4024 3093 c-13 -16 -60 -65 -104 -111 -44 -45 -80 -88 -80 -95 0
-35 23 -87 45 -101 34 -22 63 -20 110 9 126 78 159 85 280 62 82 -16 109 -8
124 35 23 65 -41 148 -114 148 -48 0 -122 25 -160 54 -43 33 -70 33 -101 -1z"/>
<path d="M4131 2530 c-67 -46 -174 -73 -269 -68 l-67 3 -13 -40 c-26 -77 7
-168 76 -208 38 -22 68 -18 104 16 46 43 82 64 146 87 57 21 66 28 93 74 16
28 29 66 29 84 0 31 -27 93 -40 91 -3 -1 -29 -18 -59 -39z"/>
<path d="M1431 2106 c-16 -20 3 -56 29 -56 26 0 45 36 29 56 -6 8 -19 14 -29
14 -10 0 -23 -6 -29 -14z"/>
<path d="M2973 2104 c-7 -3 -13 -16 -13 -30 0 -17 7 -25 26 -30 31 -8 47 6 42
37 -3 24 -28 34 -55 23z"/>
<path d="M5053 2103 c-7 -2 -13 -15 -13 -29 0 -32 45 -45 65 -18 25 34 -9 65
-52 47z"/>
<path d="M2312 1703 c-14 -26 3 -53 34 -53 14 0 27 7 31 16 15 39 -46 73 -65
37z"/>
<path d="M3452 1711 c-8 -4 -12 -19 -10 -32 2 -19 9 -24 33 -24 33 0 45 25 25
50 -14 17 -29 19 -48 6z"/>
<path d="M4167 1713 c-11 -10 -8 -51 4 -58 18 -12 59 4 59 23 0 32 -43 56 -63
35z"/>
</g>
</svg>
